<?xml version="1.0" encoding="utf-8"?>
<!DOCTYPE svg PUBLIC "-//W3C//DTD SVG 1.0//EN" "http://www.w3.org/TR/2001/REC-SVG-20010904/DTD/svg10.dtd">
<svg xmlns="http://www.w3.org/2000/svg" version="1.0" width="260px" height="260px" viewBox="0 0 260 260" preserveAspectRatio="xMidYMid meet" style="background-color:transparent;">
  <g fill="none">
    <path d="M0 130 l0 -130 130 0 130 0 0 130 0 130 -130 0 -130 0 0 -130z m135.2 120 c1.4 -1 3.1 -3.3 3.8 -4.9 1 -2.5 0.9 -3.4 -0.6 -6 -1 -1.6 -3.2 -3.8 -5 -4.7 -3 -1.7 -3.3 -1.6 -6.5 0.2 -6.6 3.9 -7.5 9.5 -2.3 14.7 3.2 3.2 7.1 3.5 10.6 0.7z m-33 -6.7 c0.9 -1 2.1 -2.9 2.8 -4.2 1 -2 0.9 -2.6 -1.5 -5.1 -1.4 -1.5 -4.5 -3.3 -6.8 -3.9 -7.5 -2.2 -20.3 -8.9 -28.3 -14.9 -17 -12.6 -30.8 -31.8 -37 -51.6 -2 -6.4 -5.3 -10.6 -8.3 -10.6 -1 0 -3.1 1.4 -4.6 3.1 -3.2 3.9 -3 5.5 3.3 19.9 5.9 13.5 15.2 27.3 25.5 37.8 12.6 12.9 24.6 21 40.8 27.7 9.5 3.9 12 4.2 14.1 1.8z m68 -1 c22.5 -9.7 42.7 -25.9 55.7 -44.7 5.9 -8.6 13.8 -24.1 16.6 -32.4 1.6 -4.9 1.6 -5.4 0 -7.8 -0.9 -1.4 -2.7 -3 -4.1 -3.6 -4 -1.9 -7.4 1.5 -10.5 10.3 -3.7 10.6 -6.2 15.9 -11.2 23.6 -6.8 10.5 -15.1 19.8 -23.5 26.1 -9.9 7.6 -14.7 10.3 -25.7 14.7 -12.3 4.9 -14.9 8.2 -10.4 13.9 2.6 3.3 5.1 3.3 13.1 -0.1z m-35.8 -25.4 c1.4 -1.1 3.3 -3.4 4.1 -5 1.4 -2.6 1.4 -3.2 0 -5.9 -1.6 -3 -6.1 -6 -9.1 -6 -2.5 0 -8.4 6.5 -8.4 9.3 0 4.1 5.2 9.4 9.6 9.6 0.6 0.1 2.3 -0.8 3.8 -2z m-27 -5.2 c1.9 -2.6 1.9 -2.7 0 -6.3 -1.5 -2.9 -3.6 -4.4 -11.2 -8.1 -5 -2.5 -11.5 -6.6 -14.4 -9.2 -10.5 -9.4 -20.2 -25.2 -22.3 -36.3 l-0.7 -3.6 -7.4 0.2 c-4.6 0 -7.4 0.5 -7.4 1.2 0 3.9 6.4 18.3 12.7 28.2 4.9 7.8 21.4 23.9 29.2 28.7 7 4.2 17 8.6 18.5 8.2 0.6 -0.2 1.9 -1.5 3 -3z m58.5 -0.3 c14.1 -6.3 32.8 -24.4 40.6 -39.5 3.7 -7.1 9.5 -21.6 9.5 -23.6 0 -0.2 -3.3 -0.3 -7.4 -0.3 l-7.3 0 -1.3 4.8 c-2.1 8.1 -8.6 20.4 -14.4 27.4 -6.5 7.8 -13.3 13.1 -23.4 18.2 -4.9 2.5 -7.6 4.5 -8.7 6.5 -2 4 -1.9 5 0.7 7.8 2.4 2.6 3 2.5 11.7 -1.3z m-142.5 -75.6 c1.9 -1.8 3.7 -4.2 4 -5.3 0.8 -2.9 -2.8 -8.2 -6.8 -10.2 -3.2 -1.5 -3.7 -1.5 -6.1 0.1 -2.3 1.5 -6.5 7.1 -6.5 8.7 0 1.6 4.8 7.5 7 8.6 3.7 1.9 4.7 1.6 8.4 -1.9z m223.1 0.1 c1.9 -1.7 3.8 -4.2 4.1 -5.4 0.7 -3 -2 -7.7 -5.7 -9.9 -2.6 -1.5 -3.1 -1.5 -5.8 -0.2 -3.3 1.8 -7.1 6.2 -7.1 8.3 0 3.7 6.1 10.2 9.7 10.3 0.7 0 2.8 -1.4 4.8 -3.1z m-192.4 -2.8 c2.6 -2.7 2.9 -3.6 2.9 -9.4 0 -7.6 2.7 -17.1 7.8 -27.4 7 -14.2 15.6 -22.7 31.3 -30.8 8.3 -4.3 12.9 -8.2 12.9 -11 0 -2.3 -4.1 -6.5 -6.4 -6.5 -3.9 0 -19.8 8.4 -27.4 14.5 -9.3 7.5 -20.1 20.8 -25.2 31 -4.3 8.7 -7.5 20.2 -8.6 30.6 -0.6 6.4 -0.6 6.6 2.6 9.2 4.1 3.5 6.4 3.4 10.1 -0.2z m160.7 1.3 c3.6 -2.5 4.3 -5.6 3.2 -13.7 -4.2 -29.5 -25.2 -57.4 -52.6 -69.8 -7.9 -3.6 -9.7 -3.6 -12.3 -0.2 -3.8 4.7 -1.1 8.8 9.3 13.9 9.2 4.6 15.3 9.2 22.6 17.2 10.4 11.3 18 30.2 18 44.6 0 3.7 0.5 4.8 3.1 7 3.5 3 5.6 3.2 8.7 1z m-188.2 -30.9 c1.2 -0.8 3.2 -4 4.4 -7.2 12.7 -31.9 33.1 -52.3 63 -62.8 6.9 -2.4 12 -6.1 12 -8.7 0 -0.5 -1.5 -2.5 -3.4 -4.4 l-3.4 -3.4 -7.4 2.6 c-29.2 10.5 -55.6 34.5 -69.4 63.1 -6.1 12.5 -6.5 15.5 -2.9 19.4 3.3 3.3 4.2 3.5 7.1 1.4z m213.8 -1.4 c3.5 -3.7 3.2 -5.8 -2.3 -17.5 -7.8 -16.8 -22.9 -36.1 -36.4 -46.5 -11.2 -8.6 -26.7 -16.7 -39.3 -20.5 -2.6 -0.8 -8.4 3.6 -8.4 6.4 0 3.1 4.1 6.6 10.5 9 9.7 3.5 17.5 7.2 23.9 11.4 7 4.4 19.2 16 24.1 22.6 4.7 6.5 12.4 20.6 14.6 27 2.1 5.8 6.2 11 8.9 11 0.9 0 2.9 -1.3 4.4 -2.9z m-104.9 -43.2 c4.1 -3.7 4.6 -7.3 1.4 -11.3 -2.8 -3.6 -6.4 -4.9 -9.2 -3.5 -7.5 3.9 -8.7 9.1 -3.3 14.5 4.2 4.2 6.5 4.3 11.1 0.3z m-1.1 -31 c1.4 -1.1 3.3 -3.3 4.1 -4.9 1.3 -2.6 1.3 -3.1 -0.8 -6.1 -1.2 -1.9 -3.5 -4 -4.9 -4.9 -2.5 -1.3 -3.1 -1.3 -6.1 0.3 -1.8 1 -4.1 3.1 -5.1 4.7 -1.5 2.6 -1.5 3.3 -0.2 5.7 2.1 4.2 5.7 7 9.2 7.2 0.6 0.1 2.3 -0.8 3.8 -2z"/>
  </g>
  <g fill="#28334f">
    <path d="M124.4 254.4 c-4.3 -2.1 -7.8 -8.6 -7.1 -13.1 0.8 -4.7 3 -7.9 6.9 -9.9 8.8 -4.6 18.8 1.4 18.8 11.3 0 5 -3.2 10.1 -7.5 11.9 -4.4 1.8 -7.2 1.8 -11.1 -0.2z"/>
    <path d="M91.1 246.9 c-8.3 -2.9 -20.8 -9.2 -28.6 -14.4 -10.2 -6.8 -24.5 -21.4 -32.3 -33 -8.3 -12.3 -16.2 -29.8 -16.9 -37.5 -0.5 -5 -0.2 -5.9 2.1 -8.7 3.1 -3.7 7.6 -5 11.6 -3.3 3.5 1.5 5.1 3.8 7.5 11 9.8 29.8 34.2 55.2 62.5 65.1 11.2 3.8 14.5 9.2 10.5 16.9 -3.2 6.2 -7.3 7.2 -16.4 3.9z"/>
    <path d="M157.3 248 c-5.2 -2.1 -7.6 -10.5 -4.5 -15.6 1.5 -2.3 4 -3.8 10.3 -6.3 11 -4.3 17.7 -8.1 27.1 -15.2 15.7 -12 28.9 -31.1 34.9 -50.6 2.8 -8.9 8.6 -12.9 15 -10.3 6.9 2.9 8.5 9.1 5 19.1 -10.8 31 -34.4 57.7 -63.8 72.3 -14 7 -19.4 8.5 -24 6.6z"/>
    <path d="M151.1 215.6 c-2.7 -2.9 -3 -8.9 -0.7 -13.4 1.2 -2.3 3.7 -4.2 8.8 -6.8 20 -10.1 31.9 -24.9 38.3 -47.6 l1.6 -5.8 3.1 1.6 c3.2 1.6 12.5 1.6 16.2 -0.1 1.7 -0.8 1.8 -0.5 1.2 3.8 -1.1 7.1 -4.9 17.5 -10.1 27.6 -8.2 15.8 -26.9 33.6 -42.3 40.2 -8.4 3.6 -13.1 3.7 -16.1 0.5z"/>
    <path d="M234.9 140.3 c-6 -3.7 -7.9 -13.4 -3.8 -18.7 6.5 -8.3 17.5 -7.2 22.1 2.2 1.8 3.8 1.9 4.9 0.9 8.2 -1.7 5.6 -7.1 10 -12.4 10 -2.3 0 -5.4 -0.8 -6.8 -1.7z"/>
    <path d="M207.6 138.9 c-5 -1.4 -7.6 -4.7 -7.6 -9.6 0 -14.3 -7.6 -33.2 -18 -44.5 -7.3 -8 -13.4 -12.6 -22.6 -17.2 -8.8 -4.3 -10.6 -6.3 -11.2 -12.5 -0.4 -4.6 -0.2 -5.3 2.6 -8.1 3.9 -3.9 6.7 -3.8 16.2 0.3 29 12.7 50.1 40.8 54.1 71.8 1.3 10 0.7 14.9 -2 17.4 -2.6 2.2 -7.9 3.4 -11.5 2.4z"/>
    <path d="M124 31.7 c-6.1 -3.1 -8.7 -11.9 -5.3 -17.7 3.9 -6.7 12.8 -8.6 18.7 -3.9 7.3 5.7 7.3 15.1 0 20.8 -3.1 2.4 -9.5 2.8 -13.4 0.8z"/>
  </g>
  <g fill="#27aeb1">
    <path d="M40.9 136.3 l-3.2 -2.7 0.6 -9.6 c1.7 -25.5 13.7 -48.4 33.9 -64.5 9.5 -7.5 24.7 -15 30.6 -15 5.8 0 9.2 3.6 9.2 9.9 0 6 -2.5 8.7 -12.9 14.1 -15.7 8.1 -24.3 16.6 -31.3 30.8 -5.1 10.3 -7.8 19.8 -7.8 27.4 0 5.8 -0.3 6.7 -2.9 9.4 -2.5 2.4 -3.8 2.9 -7.9 2.9 -4 0 -5.7 -0.6 -8.3 -2.7z"/>
    <path d="M233.5 108.3 c-3.4 -0.8 -7.4 -5.4 -9.1 -10.7 -2 -5.9 -10.2 -21.1 -14.9 -27.6 -4.9 -6.6 -17.1 -18.2 -24.1 -22.6 -6.4 -4.2 -14.2 -7.9 -23.9 -11.4 -8.1 -3 -10.5 -5.8 -10.5 -12 0 -4.2 0.4 -5.2 3.1 -7.4 3.9 -3.3 7.7 -3.3 17.1 0 28.5 10.3 54.3 33.5 68.6 62 4.5 8.9 7.4 18.2 6.7 21.4 -1.1 5.2 -7.8 9.4 -13 8.3z"/>
    <path d="M16.1 104.5 c-3.6 -4.2 -3.8 -6.5 -1.1 -14.6 10.6 -31.2 41 -61.5 73.8 -73.3 9.9 -3.5 12.6 -3.4 16.8 0.8 2.7 2.7 3.4 4.2 3.4 7.4 0 5.7 -2.9 8.5 -12 11.7 -29.9 10.5 -50.3 30.9 -63 62.8 -2.7 6.8 -5 8.7 -10.6 8.7 -3.5 0 -4.7 -0.5 -7.3 -3.5z"/>
    <path d="M126.6 65 c-6.3 -1.9 -10 -8.5 -8.9 -15.5 1 -6.3 9.6 -11.3 15.7 -9.2 12.3 4.1 12.5 20 0.3 24.6 -3.2 1.2 -3.2 1.2 -7.1 0.1z"/>
  </g>
  <g fill="#0e636f">
    <path d="M124.4 221 c-2.8 -1.1 -6.1 -5.4 -6.9 -9 -1.4 -6.6 3.9 -14.2 10.9 -15.5 4.4 -0.9 11 2.4 13.1 6.5 5.7 10.9 -5.5 22.7 -17.1 18z"/>
    <path d="M94.9 215.7 c-9.9 -4.1 -18.2 -9.9 -28 -19.7 -13.6 -13.5 -21.7 -27.1 -25.9 -43.4 -2.1 -8.3 -1.9 -10.1 0.8 -8.7 4.4 2.2 8.6 2.1 16.9 -0.4 1.9 -0.6 2.3 -0.2 3.3 3.7 3.5 14.2 12 28.2 22.8 37.9 2.9 2.6 9.4 6.7 14.4 9.2 10.3 5 12.8 7.9 12.8 14.6 0 8.7 -6.3 11.2 -17.1 6.8z"/>
    <path d="M12 140.7 c-6 -3 -8.7 -11.6 -5.5 -17.7 4.8 -9.4 18.2 -9.3 23.1 0.1 4.2 8.3 -1.8 18.9 -10.8 18.9 -2.4 0 -5.4 -0.6 -6.8 -1.3z"/>
  </g>
</svg>
